<svg data-testid="master" fill="none" viewBox="0 0 24 24" xmlns="http://www.w3.org/2000/svg" role="img" aria-label="Mastercard" class="svelte-1ccs7l7 medium-3ks-un"><title>Mastercard</title><path fill-rule="evenodd" clip-rule="evenodd" d="M21.5831 12.1563C21.5831 15.4643 18.9294 18.1459 15.6559 18.1459C12.3823 18.1459 9.72864 15.4643 9.72864 12.1563C9.72864 8.84838 12.3823 6.16675 15.6559 6.16675C18.9294 6.16675 21.5831 8.84838 21.5831 12.1563Z" fill="#F79E1B"></path><path fill-rule="evenodd" clip-rule="evenodd" d="M14.2711 12.1563C14.2711 15.4643 11.6174 18.1459 8.34385 18.1459C5.07033 18.1459 2.41663 15.4643 2.41663 12.1563C2.41663 8.84838 5.07033 6.16675 8.34385 6.16675C11.6174 6.16675 14.2711 8.84838 14.2711 12.1563Z" fill="#EB001B"></path><path fill-rule="evenodd" clip-rule="evenodd" d="M11.9993 7.44116C10.6164 8.53766 9.72864 10.2416 9.72864 12.1556C9.72864 14.0697 10.6164 15.7749 11.9993 16.8714C13.3823 15.7749 14.2701 14.0697 14.2701 12.1556C14.2701 10.2416 13.3823 8.53766 11.9993 7.44116Z" fill="#FF5F00"></path></svg>