<svg data-testid="wallet_rebranding" width="30" height="22" viewBox="0 0 30 22" fill="none" xmlns="http://www.w3.org/2000/svg" role="img"><path d="M15.0037 0.786385C6.87436 0.786385 0.284912 5.00178 0.284912 10.2022C0.284912 15.4027 6.87436 20.0264 15.0037 20.0264C23.133 20.0264 29.7222 15.4023 29.7222 10.2022C29.7222 5.00215 23.1326 0.786385 15.0037 0.786385Z" fill="#00BCFF"></path><path d="M10.2143 7.29172C10.2069 7.30607 10.0631 7.45485 10.1564 7.57446C10.3838 7.86525 11.0869 8.03194 11.7979 7.87238C12.2212 7.77741 12.7637 7.34568 13.2893 6.92874C13.7911 6.473 14.3668 6.10596 14.9917 5.84334C15.3909 5.69716 15.827 5.68575 16.2333 5.81086C16.6458 5.96413 17.0287 6.18756 17.3651 6.47129C18.3518 7.21323 22.3197 10.6767 23.0054 11.2752C25.1122 10.3991 27.2934 9.71388 29.5227 9.2279C29.2328 7.45014 28.1635 5.75539 26.5231 4.42368C24.2366 5.38398 21.2561 5.95898 18.524 4.62494C17.5957 4.2047 16.592 3.97647 15.5732 3.95395C13.4056 4.00438 12.4666 4.94232 11.4729 5.93533L10.2143 7.29172Z" fill="white"></path><path d="M22.8446 11.6521C22.7978 11.6103 18.1792 7.56878 17.1326 6.7823C16.768 6.45795 16.3184 6.24447 15.8366 6.16696C15.6292 6.15044 15.4205 6.17051 15.22 6.22625C14.602 6.45897 14.0303 6.79963 13.5316 7.23235C12.9468 7.69847 12.395 8.13715 11.8828 8.25194C11.2638 8.3791 10.6198 8.28234 10.0655 7.97892C9.93572 7.89952 9.83113 7.78492 9.76389 7.64845C9.72686 7.54388 9.72178 7.43066 9.74929 7.32319C9.7768 7.21572 9.83566 7.11886 9.91837 7.04495L11.1931 5.66622C11.3415 5.51851 11.4904 5.37036 11.6436 5.22486C11.2505 5.28395 10.8621 5.37139 10.4816 5.48651C10.0434 5.63206 9.58737 5.71711 9.12615 5.73931C8.66138 5.69226 8.1995 5.62006 7.74254 5.52304C6.37999 5.20332 5.04995 4.75823 3.76941 4.19345C1.95723 5.54246 0.777191 7.19877 0.427002 9.05652C0.687373 9.1253 1.36965 9.28088 1.54598 9.31998C5.64703 10.2317 6.92413 11.171 7.15585 11.3672C7.29213 11.2138 7.46141 11.0933 7.65097 11.0148C7.84053 10.9362 8.04543 10.9017 8.25026 10.9138C8.45509 10.9258 8.65452 10.9842 8.83354 11.0844C9.01257 11.1847 9.16654 11.3242 9.28387 11.4925C9.56045 11.2689 9.90563 11.1475 10.2613 11.1486C10.4611 11.1505 10.6592 11.1852 10.8478 11.2514C11.0305 11.3098 11.1987 11.4066 11.3411 11.5352C11.4834 11.6638 11.5967 11.8214 11.6733 11.9973C11.8524 11.9161 12.0471 11.8747 12.2438 11.8759C12.4791 11.8789 12.7113 11.9301 12.926 12.0264C13.2246 12.1663 13.4668 12.4035 13.6131 12.699C13.7593 12.9946 13.8009 13.331 13.731 13.6533C13.7853 13.6474 13.8398 13.6445 13.8944 13.6446C14.3254 13.6453 14.7386 13.8169 15.0433 14.1217C15.348 14.4266 15.5194 14.8398 15.5199 15.2709C15.5199 15.539 15.453 15.8028 15.3254 16.0385C15.7498 16.2979 16.2401 16.4292 16.7374 16.4167C16.8614 16.4167 16.9841 16.3912 17.0977 16.3416C17.2114 16.292 17.3136 16.2195 17.3979 16.1286C17.4388 16.071 17.4814 16.0036 17.4418 15.955L16.2846 14.6699C16.2846 14.6699 16.0943 14.4897 16.1572 14.4203C16.2221 14.3488 16.3399 14.4513 16.4234 14.521C17.0122 15.0126 17.7309 15.7549 17.7309 15.7549C17.7435 15.763 17.7908 15.8571 18.0567 15.9048C18.2156 15.9324 18.3785 15.9278 18.5356 15.8911C18.6927 15.8545 18.8409 15.7866 18.9712 15.6914C19.045 15.6297 19.1124 15.5607 19.1725 15.4855C19.1684 15.4895 19.1639 15.493 19.159 15.496C19.2401 15.3838 19.281 15.2476 19.275 15.1094C19.2689 14.9711 19.2164 14.8389 19.1259 14.7342L17.775 13.2173C17.775 13.2173 17.5817 13.0384 17.648 12.9672C17.7067 12.9046 17.8307 12.9988 17.9156 13.0691C18.3431 13.4268 18.9474 14.0327 19.5266 14.6006C19.7196 14.7312 19.9491 14.7972 20.1821 14.7891C20.415 14.7811 20.6394 14.6993 20.823 14.5557C20.9734 14.4727 21.0978 14.3496 21.1824 14.2002C21.267 14.0507 21.3086 13.8807 21.3024 13.7091C21.2732 13.4945 21.1728 13.2959 21.0172 13.1452L19.1725 11.2898C19.1725 11.2898 18.9771 11.1233 19.0463 11.0394C19.1029 10.9685 19.2286 11.0704 19.3122 11.1398C19.8996 11.6317 21.4907 13.0908 21.4907 13.0908C21.6782 13.2118 21.8975 13.2741 22.1206 13.2697C22.3436 13.2652 22.5603 13.1943 22.7428 13.0659C22.86 12.9973 22.9587 12.9012 23.0304 12.7858C23.102 12.6704 23.1444 12.5393 23.1538 12.4039C23.1593 12.2637 23.1345 12.124 23.0811 11.9943C23.0278 11.8645 22.9471 11.7478 22.8446 11.6521Z" fill="white"></path><path d="M13.8942 14.0036C13.6775 14.034 13.4635 14.0814 13.2542 14.1454C13.2314 14.1307 13.2717 14.0156 13.2983 13.9493C13.3262 13.8837 13.7029 12.7497 12.7843 12.3562C12.5787 12.2459 12.3431 12.2049 12.1123 12.2393C11.8816 12.2737 11.6681 12.3817 11.5037 12.5471C11.4652 12.5873 11.4478 12.5839 11.4435 12.5332C11.438 12.3215 11.3664 12.1168 11.2387 11.9479C11.111 11.779 10.9336 11.6543 10.7314 11.5913C10.445 11.5031 10.1378 11.5099 9.85558 11.6105C9.57335 11.7111 9.33118 11.9002 9.16513 12.1496C9.13555 11.926 9.03146 11.719 8.86967 11.5618C8.70788 11.4047 8.49785 11.3067 8.2735 11.2837C8.04915 11.2607 7.82359 11.314 7.63328 11.435C7.44296 11.556 7.29899 11.7376 7.22464 11.9505C7.15028 12.1635 7.14989 12.3952 7.22351 12.6084C7.29713 12.8216 7.44048 13.0037 7.63038 13.1253C7.82029 13.247 8.04566 13.3011 8.27008 13.2788C8.49451 13.2566 8.70488 13.1593 8.86721 13.0027C8.87302 13.008 8.87523 13.0175 8.87236 13.0365C8.80441 13.3472 8.85057 13.6719 9.00241 13.9513C9.15424 14.2307 9.4016 14.4461 9.69922 14.5581C9.86 14.6201 10.0342 14.6389 10.2045 14.6126C10.3748 14.5863 10.5353 14.5159 10.6699 14.4083C10.7496 14.3521 10.7625 14.3758 10.7513 14.4509C10.7171 14.6834 10.7606 15.1814 11.4588 15.4642C11.6318 15.5489 11.8275 15.5757 12.0169 15.5405C12.2063 15.5053 12.3793 15.41 12.5103 15.2688C12.6002 15.1873 12.6247 15.2006 12.6293 15.327C12.6406 15.5747 12.7243 15.8136 12.8701 16.0142C13.0159 16.2147 13.2174 16.368 13.4496 16.455C13.6817 16.5421 13.9343 16.5591 14.176 16.5038C14.4178 16.4486 14.6379 16.3236 14.8092 16.1444C14.9806 15.9652 15.0955 15.7396 15.1397 15.4956C15.184 15.2516 15.1557 15.0001 15.0582 14.7721C14.9608 14.5441 14.7985 14.3497 14.5916 14.2131C14.3847 14.0765 14.1421 14.0036 13.8942 14.0036Z" fill="white"></path><path d="M15.0011 0.396484C6.71689 0.396484 0.00169191 4.80259 0.00169191 10.2071C0.00169191 10.3468 0 10.7325 0 10.7814C0 16.5155 5.86946 21.1589 14.9992 21.1589C24.184 21.1589 30 16.5165 30 10.7825V10.2071C29.9998 4.80259 23.2845 0.396484 15.0011 0.396484ZM29.3237 9.1198C27.1624 9.59805 25.0524 10.284 23.023 11.168C21.5999 9.92637 18.3119 7.06718 17.4214 6.3991C17.0762 6.10871 16.6834 5.88013 16.2604 5.72343C16.076 5.66532 15.884 5.63531 15.6906 5.63442C15.4446 5.63769 15.2004 5.67883 14.9669 5.75639C14.3415 6.01601 13.7653 6.38086 13.2631 6.83509L13.2345 6.85768C12.7178 7.26852 12.1838 7.69348 11.7797 7.78337C11.6029 7.82324 11.4222 7.84349 11.241 7.84373C11.0592 7.85888 10.8761 7.83791 10.7025 7.78203C10.5288 7.72614 10.3678 7.63645 10.229 7.51811C10.2038 7.48586 10.2204 7.43392 10.279 7.35926L10.2865 7.3491L11.5387 6.00032C12.5191 5.01982 13.4453 4.09405 15.5766 4.04513C15.6121 4.0441 15.6479 4.04344 15.683 4.04344C16.651 4.08293 17.6024 4.30827 18.4854 4.70718C19.6716 5.30017 20.978 5.61346 22.3042 5.62302C23.755 5.59798 25.1827 5.25655 26.4878 4.62259C28.0085 5.90145 29.0171 7.44172 29.3237 9.1198ZM15.0037 0.975817C19.4006 0.975817 23.3353 2.23611 25.9805 4.22105C24.8263 4.74825 23.5759 5.03171 22.3072 5.05373C21.0661 5.04362 19.8437 4.74941 18.7339 4.19365C17.7744 3.7557 16.738 3.51084 15.6839 3.47304C15.6438 3.47304 15.6033 3.47367 15.5636 3.47455C14.294 3.45597 13.0599 3.8941 12.0861 4.70913C11.4966 4.74003 10.9134 4.84648 10.351 5.02589C9.95562 5.15775 9.54451 5.23651 9.12842 5.26011C8.97162 5.26011 8.68955 5.24576 8.66425 5.24466C7.16828 4.98132 5.70099 4.57526 4.28249 4.03204C6.92242 2.15604 10.747 0.975817 15.0037 0.975817ZM3.76348 4.42368C5.59291 5.17194 7.81241 5.74977 8.51426 5.79523C8.71004 5.8081 8.91862 5.83025 9.12732 5.83069C9.59675 5.80792 10.0609 5.72167 10.5072 5.57429C10.7729 5.49981 11.0659 5.41856 11.3743 5.35971C11.2918 5.4403 11.2097 5.52217 11.1272 5.60489L9.85557 6.98049C9.75887 7.06621 9.69045 7.17926 9.65936 7.30469C9.62827 7.43012 9.63598 7.56204 9.68145 7.683C9.75526 7.83599 9.87125 7.96471 10.0158 8.05401C10.4271 8.2865 10.8932 8.40473 11.3656 8.39644C11.5466 8.39771 11.7272 8.37881 11.904 8.34009C12.4373 8.2207 12.9966 7.77502 13.5888 7.30405C14.0794 6.88047 14.6397 6.5452 15.2449 6.31314C15.3956 6.27311 15.5506 6.25185 15.7065 6.24984C15.7465 6.24953 15.7864 6.25192 15.826 6.25701C16.2917 6.33348 16.7261 6.54072 17.0785 6.85459C18.1226 7.63916 22.7418 11.6802 22.7873 11.7201C22.879 11.8071 22.9512 11.9126 22.999 12.0296C23.0468 12.1467 23.0692 12.2726 23.0646 12.3989C23.0562 12.52 23.0181 12.6372 22.9537 12.7402C22.8893 12.8431 22.8005 12.9286 22.6952 12.9891C22.5157 13.1091 22.3052 13.1747 22.0893 13.178C21.8997 13.1781 21.7139 13.1244 21.5538 13.0229C21.5369 13.009 19.9543 11.5576 19.3714 11.0698C19.2985 10.9928 19.2026 10.9415 19.098 10.9238C19.0748 10.9234 19.0518 10.9283 19.0308 10.9382C19.0098 10.9481 18.9913 10.9627 18.9769 10.9808C18.8852 11.0937 18.9879 11.2502 19.1089 11.3528L20.9576 13.2121C21.0955 13.3464 21.1854 13.5223 21.2134 13.7128C21.2182 13.8686 21.1797 14.0227 21.1022 14.158C21.0247 14.2933 20.9113 14.4045 20.7745 14.4792C20.5822 14.6146 20.3541 14.69 20.119 14.6959C19.9312 14.6959 19.7477 14.6401 19.5916 14.5357L19.3265 14.2746C18.8416 13.7977 18.3411 13.3043 17.9748 12.9988C17.9008 12.9226 17.8041 12.8724 17.6992 12.8557C17.6774 12.8554 17.6557 12.8596 17.6357 12.8682C17.6156 12.8768 17.5976 12.8895 17.5828 12.9055C17.541 12.9519 17.5118 13.0353 17.6165 13.1737C17.6447 13.2109 17.6759 13.2457 17.7098 13.2778L19.0585 14.7931C19.1364 14.8813 19.1819 14.9935 19.1875 15.1111C19.1931 15.2286 19.1584 15.3446 19.0892 15.4398L19.0414 15.5001C19.0019 15.5429 18.9599 15.5833 18.9157 15.6212C18.7248 15.7614 18.4931 15.8348 18.2564 15.8301C18.1953 15.8304 18.1343 15.8253 18.0741 15.8147C17.9757 15.807 17.8825 15.7677 17.8082 15.7027L17.7913 15.6856C17.718 15.6094 17.038 14.9152 16.4755 14.4455C16.4057 14.3713 16.3135 14.322 16.213 14.3052C16.1899 14.305 16.1671 14.3097 16.1461 14.3191C16.1251 14.3284 16.1063 14.3422 16.091 14.3594C15.98 14.4814 16.1471 14.6635 16.218 14.7304L17.368 15.9996C17.3582 16.0277 17.3437 16.0539 17.325 16.077C17.2837 16.134 17.1443 16.2737 16.7269 16.326C16.6763 16.3325 16.6253 16.3356 16.5742 16.3353C16.1783 16.3099 15.7932 16.1956 15.4475 16.0011C15.5707 15.7396 15.6258 15.4512 15.6078 15.1626C15.5898 14.8741 15.4992 14.5948 15.3445 14.3506C15.1897 14.1065 14.9757 13.9054 14.7225 13.766C14.4692 13.6266 14.1848 13.5534 13.8958 13.5533C13.8756 13.5533 13.854 13.5539 13.8338 13.5546C13.883 13.2278 13.8247 12.894 13.6677 12.6032C13.5107 12.3125 13.2634 12.0807 12.9631 11.9428C12.7373 11.8415 12.493 11.7877 12.2455 11.7847C12.0657 11.7838 11.8873 11.8161 11.7193 11.88C11.5444 11.5405 11.2423 11.284 10.8789 11.1665C10.681 11.0963 10.4728 11.0597 10.2628 11.0581C9.9185 11.0561 9.58246 11.1638 9.30335 11.3655C9.17648 11.2061 9.01736 11.0753 8.83642 10.9817C8.65547 10.8881 8.45679 10.8338 8.25339 10.8223C8.04999 10.8109 7.84647 10.8425 7.65615 10.9152C7.46584 10.9879 7.29304 11.1 7.14907 11.2441C6.79079 10.9703 5.36998 10.0677 1.56686 9.20432C1.3852 9.16317 0.97285 9.0451 0.713141 8.96893C1.06991 7.26179 2.15461 5.7028 3.76348 4.42368ZM10.8179 14.3235L10.7767 14.2867H10.7352C10.6925 14.2898 10.6518 14.3063 10.6189 14.3337C10.4555 14.4595 10.2565 14.5303 10.0504 14.536C9.94179 14.5351 9.83428 14.5143 9.73324 14.4744C9.45414 14.3702 9.22234 14.1683 9.0809 13.9061C8.93946 13.6439 8.89801 13.3393 8.96423 13.0488C8.96877 13.0277 8.9676 13.0058 8.96082 12.9852C8.95405 12.9647 8.94192 12.9464 8.92568 12.9321L8.86345 12.8813L8.80526 12.9368C8.6358 13.1013 8.40885 13.1933 8.17264 13.1932C7.99643 13.1939 7.82377 13.1437 7.67537 13.0487C7.52698 12.9537 7.40917 12.8179 7.3361 12.6575C7.26302 12.4972 7.23779 12.3192 7.26343 12.1448C7.28907 11.9705 7.36448 11.8073 7.48063 11.6748C7.59677 11.5423 7.7487 11.4461 7.91816 11.3978C8.08763 11.3495 8.26742 11.3512 8.43596 11.4026C8.60449 11.4541 8.7546 11.5531 8.86824 11.6877C8.98189 11.8224 9.05425 11.987 9.07663 12.1617L9.10815 12.4076L9.24321 12.1995C9.39536 11.9634 9.6214 11.7842 9.88604 11.6901C10.1507 11.5959 10.4391 11.592 10.7062 11.6789C10.8907 11.7368 11.0524 11.8511 11.1686 12.0057C11.2848 12.1603 11.3496 12.3474 11.3539 12.5407C11.3638 12.6599 11.4487 12.6658 11.4651 12.6658C11.4857 12.6643 11.5057 12.6586 11.5239 12.6491C11.5422 12.6396 11.5582 12.6263 11.5711 12.6103C11.6581 12.5195 11.7627 12.4474 11.8786 12.3985C11.9945 12.3496 12.1191 12.3249 12.2448 12.3258C12.4191 12.3297 12.5908 12.3684 12.7498 12.4398C13.6115 12.8095 13.2208 13.9047 13.2162 13.9159C13.1418 14.0973 13.1389 14.1775 13.2085 14.2237L13.2425 14.2397H13.2678C13.3253 14.2333 13.3815 14.2186 13.4347 14.1961C13.5816 14.138 13.7367 14.1038 13.8943 14.0946C14.0487 14.0946 14.202 14.1251 14.3446 14.1842C14.4872 14.2433 14.6168 14.3299 14.7259 14.4391C14.835 14.5483 14.9216 14.6779 14.9806 14.8206C15.0397 14.9632 15.07 15.1161 15.07 15.2704C15.07 15.4248 15.0395 15.5777 14.9804 15.7203C14.9213 15.8629 14.8347 15.9925 14.7255 16.1016C14.6163 16.2107 14.4867 16.2973 14.344 16.3563C14.2014 16.4153 14.0485 16.4457 13.8941 16.4457C13.5913 16.4475 13.2996 16.3315 13.0808 16.1222C12.8619 15.9129 12.733 15.6268 12.7213 15.3242C12.7196 15.2703 12.714 15.1273 12.5926 15.1273C12.5374 15.1337 12.4866 15.1605 12.4502 15.2024C12.3001 15.3621 12.0928 15.4557 11.8738 15.4626C11.7431 15.4599 11.6141 15.4319 11.494 15.3802C10.8246 15.1084 10.8154 14.6488 10.8424 14.464C10.849 14.4402 10.8502 14.4153 10.846 14.391C10.8417 14.3667 10.8321 14.3436 10.8179 14.3235ZM15.0035 19.4286C7.03817 19.4287 0.581135 15.2977 0.581135 10.2022C0.582373 9.99854 0.593973 9.79505 0.615893 9.59254C0.679487 9.60773 1.31208 9.75898 1.44309 9.78844C5.32805 10.6515 6.61181 11.5487 6.82874 11.7184C6.7365 11.9396 6.7003 12.1801 6.72335 12.4186C6.74641 12.6572 6.82802 12.8864 6.96093 13.0858C7.09383 13.2852 7.27393 13.4487 7.48522 13.5618C7.69651 13.6749 7.93246 13.7341 8.17212 13.7341C8.26168 13.7343 8.35106 13.726 8.43908 13.7094C8.49646 13.9979 8.62785 14.2666 8.82038 14.489C9.0129 14.7114 9.25993 14.8799 9.53724 14.978C9.7025 15.0429 9.8783 15.0768 10.0558 15.078C10.1676 15.0787 10.279 15.0649 10.3872 15.0371C10.5206 15.3179 10.729 15.5564 10.9893 15.7264C11.2496 15.8963 11.5518 15.991 11.8626 16.0001C12.0142 16.0001 12.1646 15.9733 12.3069 15.9208C12.4146 16.1844 12.5864 16.417 12.8066 16.5976C13.0268 16.7782 13.2886 16.901 13.5682 16.9549C13.8478 17.0089 14.1365 16.9923 14.4081 16.9067C14.6797 16.821 14.9257 16.669 15.1238 16.4644C15.5669 16.7226 16.0651 16.8713 16.5772 16.8984C16.6508 16.8982 16.7242 16.8936 16.7972 16.8845C16.9862 16.8787 17.1719 16.8328 17.3418 16.7496C17.5117 16.6665 17.6619 16.5481 17.7825 16.4023C17.8053 16.371 17.8256 16.338 17.8434 16.3036C17.9943 16.3496 18.151 16.3741 18.3088 16.3764C18.65 16.3696 18.9796 16.2517 19.2478 16.0406C19.5309 15.8548 19.7299 15.5653 19.8019 15.2344C19.8025 15.2308 19.803 15.2271 19.8032 15.2234C19.9067 15.2444 20.012 15.255 20.1176 15.255C20.4624 15.2507 20.7981 15.1443 21.0823 14.9491C21.2985 14.8237 21.4769 14.6424 21.5987 14.4242C21.7205 14.206 21.7813 13.959 21.7745 13.7091C21.8793 13.731 21.9861 13.742 22.0931 13.7423C22.4148 13.7388 22.7286 13.6422 22.9966 13.4641C23.1747 13.3553 23.3245 13.2059 23.4338 13.0282C23.5431 12.8504 23.6088 12.6494 23.6256 12.4414C23.6469 12.1519 23.5771 11.863 23.426 11.6153C25.3638 10.8243 27.3647 10.1977 29.4076 9.74202C29.4193 9.89462 29.4258 10.0481 29.4258 10.2025C29.4258 15.2977 22.9688 19.4286 15.0035 19.4286Z" fill="#0A0080"></path></svg>