<svg data-testid="visa" viewBox="0 0 24 24" fill="none" xmlns="http://www.w3.org/2000/svg" role="img" aria-label="Visa" class="svelte-1a8ozhr medium-2Cua4u"><title>Visa</title><path d="M12.4081 9.69199L11.1276 15.6787H9.57898L10.8596 9.69199H12.4081ZM18.9244 13.5576L19.7396 11.3092L20.2085 13.5576H18.9244ZM20.6522 15.6787H22.0846L20.8348 9.69199H19.5122C19.2155 9.69199 18.9643 9.86483 18.853 10.1315L16.5297 15.6787H18.1553L18.4786 14.785H20.4653L20.6522 15.6787ZM16.6102 13.7242C16.6165 12.1441 14.4247 12.0573 14.4401 11.3512C14.4443 11.1364 14.6494 10.9082 15.0965 10.8494C15.3191 10.8208 15.93 10.7984 16.6242 11.1175L16.8957 9.84806C16.5234 9.71227 16.0434 9.58282 15.4471 9.58282C13.9167 9.58282 12.8393 10.3967 12.8302 11.5618C12.8204 12.4233 13.599 12.904 14.1861 13.1909C14.7893 13.4842 14.9916 13.6724 14.9895 13.9348C14.9853 14.3365 14.508 14.5135 14.063 14.5205C13.2841 14.5331 12.8323 14.3106 12.4719 14.1427L12.1913 15.4548C12.553 15.6206 13.2204 15.7655 13.9139 15.7725C15.5402 15.7725 16.6046 14.9684 16.6102 13.7242ZM10.1955 9.69199L7.68605 15.6787H6.04855L4.81412 10.9012C4.73882 10.6066 4.67374 10.4989 4.44561 10.375C4.07374 10.1727 3.45891 9.98382 2.91797 9.86622L2.95478 9.69199H5.59018C5.92608 9.69199 6.22797 9.91524 6.30425 10.3022L6.95646 13.7669L8.56806 9.69199H10.1955Z" fill="#1434CB"></path></svg>